<svg width="194" height="362" viewBox="0 0 194 362" fill="none" xmlns="http://www.w3.org/2000/svg">
<path d="M179.89 185.283C131.857 200.28 107.025 163.548 107.025 163.548C108.84 160.859 106.095 155.801 106.095 155.801L104.426 147.254C83.2044 146.213 64.0039 125.53 64.0039 125.53C91.4597 120.663 79.6247 104.217 79.6247 104.217L98.5537 119.039L100.605 118.858C100.856 93.217 117 81.2413 122.058 77.184C127.116 73.1267 127.98 77.1538 127.98 77.1538C127.98 77.1538 125.758 85.3589 135.24 86.4951C144.722 87.6314 151.665 78.7476 151.665 78.7476C154.918 71.4575 158.664 75.9773 158.664 75.9773C174.918 84.6248 177.859 106.022 181.349 120.975C183.757 131.221 188.342 153.302 191.404 164.061C192.475 167.785 192.26 171.761 190.795 175.348C189.819 177.703 188.335 179.814 186.45 181.531C184.566 183.248 182.326 184.529 179.89 185.283Z" fill="#353642"/>
<path d="M179.89 185.283C131.857 200.28 107.025 163.548 107.025 163.548C108.84 160.859 106.095 155.801 106.095 155.801L104.426 147.254C83.2044 146.213 64.0039 125.53 64.0039 125.53C82.1938 116.435 79.6247 104.217 79.6247 104.217L98.5537 119.039L100.605 118.858C100.856 93.217 117 81.2413 122.058 77.184C127.116 73.1267 127.98 77.1538 127.98 77.1538C127.98 77.1538 125.758 85.3589 135.24 86.4951C144.722 87.6314 151.665 78.7476 151.665 78.7476C154.918 71.4575 158.664 75.9773 158.664 75.9773C174.918 84.6248 177.859 106.022 181.349 120.975C183.757 131.221 188.342 153.302 191.404 164.061C192.475 167.785 192.26 171.761 190.795 175.348C189.819 177.703 188.335 179.814 186.45 181.531C184.566 183.248 182.326 184.529 179.89 185.283Z" fill="#353642"/>
<path d="M123.275 55.8028C126.276 55.8028 128.71 53.3694 128.71 50.368C128.71 47.366 126.276 44.9331 123.275 44.9331C120.273 44.9331 117.84 47.366 117.84 50.368C117.84 53.3694 120.273 55.8028 123.275 55.8028Z" fill="#D7E8F0"/>
<path d="M130.68 61.312C130.208 64.7911 127.257 67.0636 124.18 66.5608" stroke="black" stroke-width="2.07641" stroke-miterlimit="10"/>
<path d="M94.25 31.0048C94.7668 33.3698 96.0127 35.5126 97.8126 37.1315C99.612 38.7509 101.874 39.7644 104.28 40.0294C104.501 39.0626 104.953 38.1636 105.597 37.41C108.342 34.2878 109.383 40.2606 118.071 36.1631C130.137 30.4668 134.577 33.956 134.577 33.956C134.969 34.2627 134.868 37.0078 134.913 37.4753C135.175 40.3159 135.416 43.1465 135.713 45.9871C135.884 47.7166 136.05 49.436 136.216 51.1555C136.384 50.8689 136.568 50.5919 136.769 50.3259C137.935 46.4999 141.178 42.0203 145.316 44.0615C146.157 44.4899 146.884 45.1118 147.437 45.8765C150.137 49.5768 147.94 53.0559 145.009 55.6049C144.265 56.3993 143.437 57.1107 142.54 57.7266C142.998 58.7321 144.873 62.6838 144.873 62.6989C145.064 63.1011 152.037 55.5195 152.56 54.6899C153.362 52.6452 153.813 50.4798 153.893 48.2847C154.184 39.2652 150.72 28.677 143.511 23.3678C141.726 22.0506 141.102 20.8038 140.997 19.0592C140.991 18.9652 140.957 18.8752 140.899 18.8008C140.841 18.7264 140.762 18.671 140.673 18.6424C140.584 18.6137 140.487 18.6127 140.397 18.6394C140.307 18.666 140.227 18.7198 140.167 18.7927C137.824 21.387 132.158 21.0099 132.158 21.0099C112.551 15.6907 105.783 24.308 101.791 25.7811C100.166 26.3618 98.3892 26.3618 96.7638 25.7811C96.6577 26.3226 96.4054 26.8243 96.0338 27.2321C95.6623 27.6398 95.1861 27.9379 94.6572 28.0938L94.7427 29.0088C94.8146 29.7112 94.6406 30.4166 94.25 31.0048Z" fill="#3FBDF1"/>
<path d="M136.322 67.9532C135.03 68.9587 131.42 71.8546 129.977 72.7143C128.919 73.3538 127.807 73.9003 126.654 74.3483C117.976 77.6213 109.841 70.1804 106.86 62.7345C104.406 56.5958 103.843 49.7381 104.019 43.1821C104.05 42.5034 104.075 41.8096 104.13 41.1157C104.123 41.074 104.123 41.0313 104.13 40.9901C104.157 40.6738 104.203 40.3596 104.271 40.0499C104.489 39.0821 104.941 38.1826 105.588 37.4305C108.328 34.3134 109.369 40.2862 118.056 36.1837C130.123 30.4874 134.567 33.9765 134.567 33.9765C134.954 34.2832 134.854 37.0283 134.899 37.4959C135.16 40.3415 135.402 43.167 135.703 46.0076C135.869 47.7421 136.035 49.4566 136.206 51.176C136.246 51.6486 136.292 52.1061 136.332 52.5737C136.393 51.813 136.536 51.0609 136.759 50.3314C137.926 46.5054 141.168 42.0308 145.306 44.067C146.147 44.4953 146.874 45.1172 147.428 45.8819C150.128 49.5823 147.931 53.0614 144.999 55.6104C144.255 56.2484 143.469 56.8361 142.647 57.37L142.425 57.5108L142.536 57.732C142.993 58.7375 144.864 62.6943 144.864 62.7043C145.055 63.1065 152.028 55.5299 152.556 54.6953C154.372 51.8919 155.51 48.7039 155.879 45.3842C155.924 44.9669 155.95 44.5647 155.965 44.1474C156.256 35.1279 152.792 24.5397 145.583 19.2305C143.793 17.9133 143.169 16.6664 143.069 14.9219C143.063 14.8278 143.029 14.7379 142.971 14.6634C142.913 14.589 142.835 14.5337 142.745 14.5051C142.656 14.4759 142.559 14.4749 142.469 14.5021C142.379 14.5287 142.299 14.582 142.239 14.6554C139.896 17.2496 134.225 16.8726 134.225 16.8726C114.643 11.5534 107.85 20.1707 103.863 21.6438C99.8766 23.1169 96.3774 20.3969 96.3774 20.3969L96.7947 24.8564C96.8223 25.1621 96.8037 25.4708 96.7394 25.7715C96.6333 26.3124 96.3809 26.8142 96.0094 27.2219C95.6378 27.6297 95.1617 27.9278 94.6328 28.0842C94.4327 28.1571 94.2225 28.1993 94.0094 28.2099H93.8535C93.8917 29.1385 94.0129 30.0625 94.2155 30.97C94.7339 33.3385 95.9837 35.4838 97.7881 37.1032C99.5925 38.7231 101.86 39.7342 104.271 39.9946" stroke="black" stroke-width="2.07641" stroke-miterlimit="10"/>
<path d="M107.031 55.2681C110.032 55.2681 112.465 52.8348 112.465 49.8333C112.465 46.8318 110.032 44.3984 107.031 44.3984C104.029 44.3984 101.596 46.8318 101.596 49.8333C101.596 52.8348 104.029 55.2681 107.031 55.2681Z" fill="#D7E8F0"/>
<path d="M125.543 52.3983C125.546 52.8402 125.417 53.2736 125.174 53.6426C124.93 54.0116 124.583 54.3002 124.175 54.4712C123.767 54.6426 123.318 54.6888 122.884 54.6044C122.45 54.5199 122.051 54.3088 121.737 53.997C121.423 53.6853 121.209 53.2876 121.122 52.8543C121.035 52.4209 121.078 51.9714 121.246 51.5627C121.415 51.1539 121.701 50.8045 122.068 50.5582C122.436 50.3123 122.868 50.1811 123.31 50.1811C123.527 50.1766 123.743 50.2087 123.949 50.2766C123.842 50.3787 123.756 50.5008 123.696 50.6366C123.637 50.7718 123.604 50.9181 123.602 51.0659C123.604 51.351 123.72 51.623 123.922 51.8236C124.124 52.0242 124.398 52.1368 124.683 52.1368C124.827 52.1363 124.968 52.1062 125.1 52.0478C125.231 51.99 125.349 51.9056 125.447 51.8C125.512 51.9925 125.545 52.1946 125.543 52.3983Z" fill="black"/>
<path d="M109.741 51.6692C109.74 52.1086 109.609 52.5374 109.365 52.9019C109.12 53.2669 108.773 53.551 108.367 53.7184C107.961 53.8858 107.515 53.9296 107.084 53.8436C106.654 53.7576 106.258 53.546 105.948 53.2358C105.637 52.9251 105.426 52.5299 105.34 52.099C105.254 51.6686 105.297 51.2222 105.465 50.8165C105.633 50.4102 105.917 50.0633 106.281 49.8185C106.646 49.5741 107.075 49.4429 107.514 49.4419C107.804 49.4404 108.091 49.4967 108.359 49.6078C108.207 49.7089 108.082 49.8446 107.995 50.004C107.907 50.1629 107.859 50.3414 107.856 50.5229C107.856 50.6641 107.885 50.8034 107.94 50.9336C107.995 51.0638 108.075 51.1815 108.175 51.2805C108.275 51.3796 108.394 51.458 108.525 51.5108C108.656 51.5636 108.796 51.5902 108.937 51.5887C109.076 51.5907 109.214 51.5646 109.343 51.5118C109.471 51.459 109.588 51.3811 109.686 51.282C109.72 51.4087 109.738 51.5384 109.741 51.6692Z" fill="black"/>
<path d="M115.257 50.2803C115.257 50.2803 113.864 56.4693 113.698 57.0927C113.195 59.1037 117.187 58.4803 117.187 58.4803" stroke="black" stroke-width="2.07641" stroke-miterlimit="10"/>
<path d="M120.363 38.5977C120.363 38.5977 126.924 36.1392 130.574 41.0663" stroke="black" stroke-width="2.07641" stroke-miterlimit="10"/>
<path d="M98.5547 43.52C98.5547 43.52 101.933 37.3813 107.906 38.7437" stroke="black" stroke-width="2.07641" stroke-miterlimit="10"/>
<path d="M123.276 56.7878C126.822 56.7878 129.696 53.913 129.696 50.3675C129.696 46.8215 126.822 43.9473 123.276 43.9473C119.73 43.9473 116.855 46.8215 116.855 50.3675C116.855 53.913 119.73 56.7878 123.276 56.7878Z" stroke="black" stroke-width="2.07641" stroke-miterlimit="10"/>
<path d="M107.032 56.2531C110.578 56.2531 113.452 53.3788 113.452 49.8329C113.452 46.2869 110.578 43.4126 107.032 43.4126C103.486 43.4126 100.611 46.2869 100.611 49.8329C100.611 53.3788 103.486 56.2531 107.032 56.2531Z" stroke="black" stroke-width="2.07641" stroke-miterlimit="10"/>
<path d="M107.025 45.4696H107.171C108.327 45.4883 109.428 45.9654 110.233 46.7959C111.037 47.627 111.478 48.7431 111.46 49.899C111.441 51.0553 110.964 52.1564 110.133 52.9608C109.302 53.7647 108.186 54.2061 107.03 54.1875H106.894C105.739 54.1689 104.637 53.6918 103.833 52.8612C103.029 52.0307 102.587 50.9146 102.606 49.7582C102.624 48.6024 103.102 47.5008 103.932 46.6964C104.763 45.8925 105.879 45.451 107.035 45.4696H107.025ZM107.035 44.4289C105.603 44.4058 104.22 44.9523 103.191 45.9483C102.162 46.9442 101.571 48.3087 101.548 49.7406C101.524 51.1725 102.071 52.5556 103.067 53.5847C104.063 54.6139 105.427 55.2051 106.859 55.2282H107.04C108.472 55.2514 109.855 54.7049 110.884 53.7089C111.914 52.7129 112.505 51.3489 112.528 49.9166C112.551 48.4847 112.005 47.1016 111.009 46.0725C110.013 45.0438 108.648 44.4521 107.216 44.4289H107.035Z" fill="white"/>
<path d="M116.854 50.156L113.445 50.0454" stroke="black" stroke-width="2.07641" stroke-miterlimit="10"/>
<path d="M121.672 280.17L114.854 321.929L107.469 320.823C105.869 320.571 104.433 319.7 103.471 318.398C102.508 317.096 102.097 315.468 102.325 313.865L102.873 309.385L107.901 272.533C116.086 277.329 121.672 280.17 121.672 280.17Z" fill="#3FBDF1"/>
<path d="M87.9411 334.14L62.5517 348.721L49.9826 355.955L46.1315 358.172C46.139 358.099 46.139 358.025 46.1315 357.951L43.1149 359.671L39.2336 352.215C38.3271 350.493 38.1345 348.484 38.6981 346.622C39.2617 344.76 40.5362 343.195 42.2451 342.265L86.2368 318.178L86.277 318.58L87.9411 334.14Z" fill="#3FBDF1"/>
<path d="M50.8132 230.944C50.5367 230.572 50.2602 230.21 49.9786 229.893C48.3849 227.977 46.8213 226.69 45.7655 224.513C44.9239 222.741 44.681 220.743 45.0737 218.821C45.4663 216.898 46.4734 215.156 47.9424 213.855C48.5503 213.331 49.227 212.893 49.9535 212.553" stroke="black" stroke-width="2.07641" stroke-miterlimit="10"/>
<path d="M104.351 297.927L102.873 309.375L102.305 313.855C102.077 315.458 102.488 317.086 103.45 318.388C104.413 319.69 105.849 320.561 107.448 320.813L114.834 321.919L121.651 280.16C121.651 280.16 116.066 277.319 107.891 272.513C102.044 269.074 94.8189 264.624 87.4082 259.496" stroke="black" stroke-width="2.07641" stroke-miterlimit="10"/>
<path d="M103.094 307.817C103.094 307.817 95.1198 303.518 84.9941 297.329" stroke="black" stroke-width="2.07641" stroke-miterlimit="10"/>
<path d="M46.7852 169.018C70.9113 164.016 94.3321 158.849 106.785 159.022" stroke="black" stroke-width="2.07641" stroke-miterlimit="10"/>
<path d="M45.6441 269.867C18.5352 248.022 -6.06492 220.003 4.50816 195.594C10.8681 180.878 29.6915 172.859 49.9779 168.51" stroke="black" stroke-width="2.07641" stroke-miterlimit="10"/>
<path d="M104.556 148.229C104.999 149.823 107.025 159.003 107.523 160.662C109.363 166.65 85.9441 182.492 81.9773 186.052C74.8582 192.402 68.1212 199.551 62.5506 207.52C58.8463 212.719 55.7271 218.312 53.2495 224.196C51.9559 227.319 50.8624 230.522 49.9766 233.784C47.7745 241.919 46.7237 250.375 46.1656 258.882C45.7232 265.327 45.5573 271.798 45.3763 278.117C45.0043 290.244 45.1953 302.441 45.9897 314.527C46.045 315.292 46.1003 316.036 46.1656 316.8C46.7921 323.978 48.0077 331.092 49.8006 338.072V338.117" stroke="black" stroke-width="2.07641" stroke-miterlimit="10"/>
<path d="M101.094 119.904C101.853 96.3596 112.542 83.7906 122.059 77.1692C123.911 75.9002 125.897 74.8394 127.981 74.0068" stroke="black" stroke-width="2.07641" stroke-miterlimit="10"/>
<path d="M154.105 73.8516C154.548 74.0175 154.975 74.1985 155.408 74.3795L155.88 74.5856C156.924 75.0406 157.941 75.5544 158.927 76.124C162.329 78.0632 165.3 80.6756 167.66 83.8012C167.751 83.8897 167.826 83.9938 167.881 84.1079C168.293 84.6911 168.696 85.2844 169.088 85.8977C172.567 91.4281 175.81 98.8941 178.288 107.516C179.566 111.94 180.588 116.434 181.35 120.975" stroke="black" stroke-width="2.07641" stroke-miterlimit="10"/>
<path d="M181.35 120.97C183.758 131.216 188.348 153.302 191.405 164.056C192.477 167.782 192.263 171.76 190.797 175.348C189.82 177.703 188.336 179.814 186.451 181.531C184.567 183.248 182.327 184.529 179.892 185.283L170.797 187.485C169.845 187.72 169.005 188.278 168.419 189.064C166.355 191.791 164.066 194.341 161.576 196.686C122.23 233.729 74.8849 195.383 86.2373 318.188L86.2775 318.59C86.7365 323.507 87.2916 328.691 87.9417 334.141L62.5522 348.62L49.9831 355.785L46.1471 357.977L43.1305 359.696L39.2492 352.24C38.3337 350.518 38.1346 348.504 38.6956 346.636C39.2567 344.769 40.5327 343.197 42.2456 342.265L46.1672 340.088L49.8022 338.077L49.9781 337.982L62.5472 331.024L65.2218 329.515" stroke="black" stroke-width="2.07641" stroke-miterlimit="10"/>
<path d="M102.785 106.018V105.972C98.1268 103.467 93.7344 100.304 89.7013 96.5502C72.8672 81.018 61.8272 58.1434 58.9814 32.9006C58.9089 32.2775 58.8435 31.6498 58.7852 31.0176" stroke="black" stroke-width="2.07641" stroke-miterlimit="10"/>
<path d="M59.4609 4.87305C64.936 7.21592 70.0491 14.9635 72.5327 20.147C77.138 29.7648 81.1551 37.1252 86.6101 46.2906C91.2807 54.1487 95.5642 62.6605 102.91 68.4121C106.797 71.5 111.531 73.3356 116.484 73.676" stroke="black" stroke-width="2.07641" stroke-miterlimit="10"/>
<path d="M131.028 74.2943L132.993 77.8136C132.993 77.8136 130.118 84.2087 137.825 85.3148C145.532 86.4209 155.678 78.8443 155.955 73.8418C167.795 78.4169 174.054 89.9302 174.165 102.258C174.366 132.776 135.1 151.277 108.861 148.512C95.6734 147.129 83.22 141.312 72.8228 133.102C71.4352 132.026 70.1029 130.895 68.8007 129.729C66.1658 127.326 63.6967 124.747 61.4102 122.011C60.2272 120.604 59.0738 119.164 57.9512 117.693" stroke="black" stroke-width="1.89541" stroke-miterlimit="10"/>
<path d="M147.855 59.9746L155.407 74.3787" stroke="black" stroke-width="2.07641" stroke-miterlimit="10"/>
<path d="M57.1223 4.0127H57.057C54.6236 4.42496 51.6976 6.59187 50.1792 9.39728C48.4397 12.5697 48.2386 16.4359 47.8665 18.0749C47.8263 18.261 47.7861 18.442 47.766 18.6079C47.7227 18.7476 47.6895 18.8904 47.6654 19.0352L47.6 19.2816C47.3673 20.0754 46.8464 20.7537 46.14 21.183C45.4331 21.6129 44.5915 21.7632 43.7796 21.6048C42.9681 21.446 42.2446 20.99 41.7514 20.3258C41.2587 19.6617 41.0314 18.8376 41.1144 18.0146L41.2552 16.8683C41.3004 16.4561 41.3608 16.0689 41.4412 15.6818C41.6041 14.5586 41.851 13.4495 42.1803 12.3636C42.2245 12.1931 42.2778 12.0252 42.3411 11.8608C42.402 11.6014 42.4845 11.3475 42.5875 11.1016C42.6358 10.9694 42.6911 10.8402 42.7534 10.7145" stroke="black" stroke-width="2.07641" stroke-miterlimit="10"/>
<path d="M63.2961 26.914C61.7742 28.372 60.3197 29.099 58.9321 29.096C58.3438 29.0965 57.7626 28.9643 57.2327 28.7089C56.7345 28.4851 56.285 28.1659 55.9105 27.7687C54.6536 26.4766 54.7038 24.3097 55.3021 22.8567C55.735 21.9135 56.3212 21.0488 57.0367 20.2977C57.2629 20.0412 57.4841 19.7949 57.6802 19.5284C58.3418 18.7748 58.8416 17.8934 59.1483 16.9392C59.1483 16.8839 59.1483 16.8336 59.1734 16.7783" stroke="black" stroke-width="2.07641" stroke-miterlimit="10"/>
<path d="M51.3594 2.60449C52.2995 2.78046 53.2045 2.99664 54.1296 3.2078C55.0547 3.41896 56.0803 3.71057 57.0456 4.01223C59.2573 4.66632 61.3286 5.72463 63.1542 7.13437C68.1114 10.7995 69.1521 17.0488 65.5775 21.6592" stroke="black" stroke-width="2.07641" stroke-miterlimit="10"/>
<path d="M47.8651 18.0733C47.8651 18.1186 47.8651 18.1588 47.84 18.2141C47.8274 18.383 47.8038 18.5509 47.7696 18.7168L47.659 19.8631C47.5936 20.4825 47.7037 21.108 47.9772 21.6676C48.2512 22.2266 48.6766 22.6977 49.206 23.0265C49.7349 23.3548 50.3457 23.5278 50.9686 23.5248C51.5916 23.5222 52.2009 23.3438 52.7268 23.0104C53.1054 22.7761 53.4317 22.4654 53.6841 22.0984C53.937 21.7319 54.1109 21.3166 54.1949 20.8787C54.2904 20.4514 54.3708 19.9888 54.4814 19.5514C54.8837 17.8521 55.0345 16.3338 56.3014 15.0266C56.6579 14.657 57.0832 14.3599 57.5533 14.1518C57.6715 14.1015 57.7947 14.0623 57.9203 14.0361" stroke="black" stroke-width="2.07641" stroke-miterlimit="10"/>
<path d="M34.4268 15.0691V14.9384C34.642 12.7639 35.2161 10.6403 36.1261 8.65386C36.6892 7.41204 37.4444 6.26675 38.3634 5.26022C39.8038 3.63579 41.754 2.55033 43.8938 2.18332C44.5122 2.09282 45.1205 2.03249 45.744 2.00232C47.6233 1.97568 49.4991 2.17829 51.3296 2.60564C49.8213 2.72127 47.2372 4.33513 45.3719 6.36629C44.6253 7.13602 44.0014 8.01585 43.5218 8.97563C43.2855 9.47839 43.019 10.0314 42.833 10.5644C42.6419 10.9967 42.476 11.4341 42.3302 11.8615C41.8928 13.0983 41.5157 14.32 41.2292 15.4462C41.0984 15.9489 40.9778 16.4517 40.8823 16.9042C40.7264 17.7423 40.2679 18.4934 39.5937 19.0153C38.92 19.5376 38.0773 19.7935 37.2272 19.7347C36.3619 19.6337 35.5711 19.1953 35.0271 18.5145C34.4831 17.8338 34.2292 16.966 34.3212 16.0998L34.4218 15.0691" stroke="black" stroke-width="2.07641" stroke-miterlimit="10"/>
<path d="M30.4752 103.106C29.6205 101.392 29.0675 99.5114 29.892 97.8724C31.7573 94.1519 37.7552 96.1228 41.2645 93.8503C44.281 91.9147 43.9744 89.617 45.6234 86.7513C47.549 83.3979 51.018 84.7403 53.6676 86.4094C57.0512 88.526 64.4418 95.9619 76.2919 103.287C79.9781 105.579 83.5055 108.117 86.8499 110.884C96.166 118.561 119.374 131.864 139.549 96.0775" stroke="black" stroke-width="1.9306" stroke-miterlimit="10"/>
<path d="M58.4396 118.289C56.7855 116.605 54.9856 114.825 52.6629 114.403C50.1843 113.945 47.7107 115.117 45.2019 115.237C39.0229 115.519 34.4378 109.762 31.2553 104.458C30.9938 104.031 30.7525 103.573 30.4961 103.116" stroke="black" stroke-width="1.9306" stroke-miterlimit="10"/>
<path d="M43.6986 110.08C43.6986 110.08 37.7912 113.252 35.2773 109.989" stroke="black" stroke-width="1.9306" stroke-miterlimit="10"/>
<path d="M31.7734 105.349C31.7734 105.349 36.5748 108.617 39.9433 105.892" stroke="black" stroke-width="1.9306" stroke-miterlimit="10"/>
<path d="M29.5449 101.03C29.5449 101.03 33.7229 103.589 35.5177 101.754" stroke="black" stroke-width="1.9306" stroke-miterlimit="10"/>
</svg>
